<svg width="25" height="24" viewBox="0 0 25 24" fill="none" xmlns="http://www.w3.org/2000/svg">
<path d="M12.25 0C12.6651 0 13.0632 0.164906 13.3568 0.458441C13.6503 0.751977 13.8152 1.1501 13.8152 1.56522V10.4348H22.6848C23.0999 10.4348 23.498 10.5997 23.7916 10.8932C24.0851 11.1868 24.25 11.5849 24.25 12C24.25 12.4151 24.0851 12.8132 23.7916 13.1068C23.498 13.4003 23.0999 13.5652 22.6848 13.5652H13.8152V22.4348C13.8152 22.8499 13.6503 23.248 13.3568 23.5416C13.0632 23.8351 12.6651 24 12.25 24C11.8349 24 11.4368 23.8351 11.1432 23.5416C10.8497 23.248 10.6848 22.8499 10.6848 22.4348V13.5652H1.81522C1.4001 13.5652 1.00198 13.4003 0.708441 13.1068C0.414906 12.8132 0.25 12.4151 0.25 12C0.25 11.5849 0.414906 11.1868 0.708441 10.8932C1.00198 10.5997 1.4001 10.4348 1.81522 10.4348H10.6848V1.56522C10.6848 1.1501 10.8497 0.751977 11.1432 0.458441C11.4368 0.164906 11.8349 0 12.25 0Z" fill="white"/>
</svg>
