<svg width="20" height="20" viewBox="0 0 20 20" fill="none" xmlns="http://www.w3.org/2000/svg">
<path d="M16.4286 11.2857V10C16.4286 9.65901 16.2931 9.33198 16.052 9.09086C15.8109 8.84974 15.4838 8.71429 15.1429 8.71429H2.28571C1.94472 8.71429 1.6177 8.84974 1.37658 9.09086C1.13546 9.33198 1 9.65901 1 10V17.7143C1 18.0553 1.13546 18.3823 1.37658 18.6234C1.6177 18.8645 1.94472 19 2.28571 19H15.1429C15.4838 19 15.8109 18.8645 16.052 18.6234C16.2931 18.3823 16.4286 18.0553 16.4286 17.7143V16.4286M16.4286 11.2857H11.2857C10.6037 11.2857 9.94968 11.5566 9.46744 12.0389C8.9852 12.5211 8.71429 13.1752 8.71429 13.8571C8.71429 14.5391 8.9852 15.1932 9.46744 15.6754C9.94968 16.1577 10.6037 16.4286 11.2857 16.4286H16.4286M16.4286 11.2857C17.1106 11.2857 17.7646 11.5566 18.2468 12.0389C18.7291 12.5211 19 13.1752 19 13.8571C19 14.5391 18.7291 15.1932 18.2468 15.6754C17.7646 16.1577 17.1106 16.4286 16.4286 16.4286M4.85714 8.71429V4.85714C4.85714 3.83416 5.26352 2.85309 5.98687 2.12973C6.71023 1.40638 7.69131 1 8.71429 1C9.73726 1 10.7183 1.40638 11.4417 2.12973C12.1651 2.85309 12.5714 3.83416 12.5714 4.85714V8.71429M15.7857 13.8571H17.0714M13.2143 13.8571H14.5M10.6429 13.8571H11.9286" stroke="black" stroke-width="1.42105"/>
</svg>
