<svg width="26" height="26" viewBox="0 0 26 26" fill="none" xmlns="http://www.w3.org/2000/svg">
<path d="M11.5 10.6667C14.2614 10.6667 16.5 8.57737 16.5 6.00004C16.5 3.42271 14.2614 1.33337 11.5 1.33337C8.73858 1.33337 6.5 3.42271 6.5 6.00004C6.5 8.57737 8.73858 10.6667 11.5 10.6667Z" stroke="#AEAEB3" stroke-width="1.5"/>
<path d="M22.75 1.33337C22.75 1.33337 25.25 2.73337 25.25 6.00004C25.25 9.26671 22.75 10.6667 22.75 10.6667M20.25 3.66671C20.25 3.66671 21.5 4.36671 21.5 6.00004C21.5 7.63337 20.25 8.33337 20.25 8.33337M21.4975 20C21.5 19.8087 21.5 19.6139 21.5 19.4167C21.5 16.5175 17.0225 14.1667 11.5 14.1667C5.9775 14.1667 1.5 16.5175 1.5 19.4167C1.5 22.3159 1.5 24.6667 11.5 24.6667C14.2887 24.6667 16.3 24.4835 17.75 24.1569" stroke="#AEAEB3" stroke-width="1.5" stroke-linecap="round"/>
</svg>
