<svg width="36" height="34" viewBox="0 0 36 34" fill="none" xmlns="http://www.w3.org/2000/svg">
<g clip-path="url(#clip0_300_2272)">
<path d="M10.0257 24.8463V23.3206C10.0257 21.2975 10.8294 19.3572 12.2599 17.9267C13.6905 16.4961 15.6308 15.6924 17.6539 15.6924M17.6539 15.6924C19.677 15.6924 21.6173 16.4961 23.0478 17.9267C24.4784 19.3572 25.2821 21.2975 25.2821 23.3206V24.8463M17.6539 15.6924C18.8678 15.6924 20.0319 15.2102 20.8903 14.3519C21.7486 13.4935 22.2308 12.3294 22.2308 11.1155C22.2308 9.90162 21.7486 8.73746 20.8903 7.87912C20.0319 7.02078 18.8678 6.53857 17.6539 6.53857C16.44 6.53857 15.2758 7.02078 14.4175 7.87912C13.5592 8.73746 13.077 9.90162 13.077 11.1155C13.077 12.3294 13.5592 13.4935 14.4175 14.3519C15.2758 15.2102 16.44 15.6924 17.6539 15.6924ZM0.871826 24.8463V23.3206C0.871826 22.1067 1.35404 20.9426 2.21238 20.0843C3.07072 19.2259 4.23487 18.7437 5.44875 18.7437M5.44875 18.7437C6.258 18.7437 7.03411 18.4222 7.60633 17.85C8.17856 17.2778 8.50003 16.5017 8.50003 15.6924C8.50003 14.8832 8.17856 14.1071 7.60633 13.5348C7.03411 12.9626 6.258 12.6411 5.44875 12.6411C4.6395 12.6411 3.86339 12.9626 3.29117 13.5348C2.71894 14.1071 2.39747 14.8832 2.39747 15.6924C2.39747 16.5017 2.71894 17.2778 3.29117 17.85C3.86339 18.4222 4.6395 18.7437 5.44875 18.7437ZM34.4359 24.8463V23.3206C34.4359 22.1067 33.9537 20.9426 33.0954 20.0843C32.237 19.2259 31.0729 18.7437 29.859 18.7437M29.859 18.7437C30.6683 18.7437 31.4444 18.4222 32.0166 17.85C32.5888 17.2778 32.9103 16.5017 32.9103 15.6924C32.9103 14.8832 32.5888 14.1071 32.0166 13.5348C31.4444 12.9626 30.6683 12.6411 29.859 12.6411C29.0498 12.6411 28.2736 12.9626 27.7014 13.5348C27.1292 14.1071 26.8077 14.8832 26.8077 15.6924C26.8077 16.5017 27.1292 17.2778 27.7014 17.85C28.2736 18.4222 29.0498 18.7437 29.859 18.7437Z" stroke="#CBCBCE" stroke-width="2.28846" stroke-linecap="round" stroke-linejoin="round"/>
</g>
<defs>
<clipPath id="clip0_300_2272">
<rect width="36.6154" height="36.6154" fill="white" transform="translate(-0.653809 -2.61523)"/>
</clipPath>
</defs>
</svg>
