<svg width="19" height="18" viewBox="0 0 19 18" fill="none" xmlns="http://www.w3.org/2000/svg">
<path d="M9.50097 17C11.0832 17 12.6299 16.5308 13.9455 15.6518C15.2611 14.7727 16.2865 13.5233 16.892 12.0615C17.4975 10.5997 17.6559 8.99113 17.3473 7.43928C17.0386 5.88743 16.2766 4.46197 15.1578 3.34315C14.039 2.22433 12.6135 1.4624 11.0617 1.15372C9.50985 0.84504 7.90132 1.00347 6.43951 1.60897C4.9777 2.21447 3.72827 3.23985 2.84922 4.55544C1.97017 5.87103 1.50098 7.41775 1.50098 9C1.50098 10.3227 1.82098 11.5698 2.38987 12.6684L1.50098 17L5.83253 16.1111C6.9312 16.68 8.1792 17 9.50097 17Z" stroke="black" stroke-width="2" stroke-linecap="round" stroke-linejoin="round"/>
</svg>
