<svg width="27" height="27" viewBox="0 0 27 27" fill="none" xmlns="http://www.w3.org/2000/svg">
    <g clip-path="url(#clip0_30_27304)">
        <path d="M26.5062 13.5C26.5062 6.31399 20.6807 0.488491 13.4947 0.488491C6.30868 0.488491 0.483185 6.31399 0.483185 13.5C0.483185 19.9944 5.24133 25.3774 11.4616 26.3534V17.2611H8.15794V13.5H11.4616V10.6334C11.4616 7.37239 13.4042 5.57111 16.3763 5.57111C17.7999 5.57111 19.2889 5.82524 19.2889 5.82524V9.02729H17.6482C16.0318 9.02729 15.5277 10.0303 15.5277 11.0593V13.5H19.1364L18.5595 17.2611H15.5277V26.3534C21.7481 25.3774 26.5062 19.9945 26.5062 13.5Z" fill="#1877F2"/>
        <path d="M18.5595 17.2611L19.1364 13.5H15.5277V11.0593C15.5277 10.0302 16.0318 9.0273 17.6482 9.0273H19.2889V5.82525C19.2889 5.82525 17.7999 5.57112 16.3762 5.57112C13.4042 5.57112 11.4616 7.3724 11.4616 10.6334V13.5H8.15793V17.2611H11.4616V26.3534C12.1342 26.4588 12.8139 26.5117 13.4947 26.5115C14.1754 26.5117 14.8552 26.4589 15.5277 26.3534V17.2611H18.5595Z" fill="white"/>
    </g>
    <defs>
        <clipPath id="clip0_30_27304">
            <rect width="26.023" height="26.023" fill="white" transform="translate(0.483185 0.488491)"/>
        </clipPath>
    </defs>
</svg>
