<svg width="24" height="25" viewBox="0 0 24 25" fill="none" xmlns="http://www.w3.org/2000/svg">
    <g clip-path="url(#clip0_30_27287)">
        <path d="M8.36061 0.822266C5.96264 1.68881 3.89463 3.33353 2.46035 5.51485C1.02606 7.69617 0.301099 10.2991 0.391944 12.9413C0.48279 15.5836 1.38466 18.1258 2.96507 20.1947C4.54549 22.2635 6.72115 23.7499 9.17249 24.4355C11.1598 24.9697 13.242 24.9932 15.24 24.5039C17.05 24.0804 18.7233 23.1745 20.0962 21.875C21.5251 20.4811 22.5623 18.708 23.0962 16.7461C23.6764 14.6126 23.7797 12.369 23.3981 10.1875H12.2381V15.0098H18.7012C18.5721 15.7789 18.2953 16.513 17.8874 17.168C17.4795 17.8231 16.949 18.3858 16.3275 18.8223C15.5384 19.3663 14.6487 19.7322 13.7156 19.8965C12.7799 20.0778 11.8201 20.0778 10.8844 19.8965C9.9359 19.6925 9.03869 19.2847 8.24999 18.6992C6.98277 17.7648 6.03126 16.4374 5.53124 14.9063C5.02291 13.3464 5.02291 11.6555 5.53124 10.0957C5.88716 9.00238 6.47555 8.00691 7.25249 7.18359C8.1416 6.22412 9.26724 5.53828 10.5059 5.20132C11.7446 4.86437 13.0484 4.88932 14.2744 5.27344C15.2321 5.57954 16.1079 6.11461 16.8319 6.83594C17.5606 6.08073 18.2881 5.32357 19.0144 4.56445C19.3894 4.15625 19.7981 3.76758 20.1675 3.34961C19.0622 2.27836 17.765 1.44474 16.35 0.896485C13.7732 -0.0781447 10.9537 -0.104337 8.36061 0.822266Z" fill="white" fill-opacity="0.8"/>
        <path d="M8.36064 0.822265C10.9535 -0.104967 13.773 -0.0794646 16.35 0.894531C17.7653 1.44651 19.0619 2.28414 20.1656 3.35937C19.7906 3.77734 19.395 4.16797 19.0125 4.57422C18.285 5.33073 17.5581 6.08463 16.8319 6.83594C16.1079 6.11461 15.2321 5.57954 14.2744 5.27344C13.0488 4.88797 11.7451 4.86158 10.5061 5.19715C9.26706 5.53273 8.14073 6.21731 7.25064 7.17578C6.4737 7.99909 5.88532 8.99456 5.52939 10.0879L1.64252 6.95312C3.03378 4.07922 5.44267 1.88091 8.36064 0.822265Z" fill="#E33629"/>
        <path d="M0.611248 10.0586C0.82001 8.98002 1.16686 7.93553 1.6425 6.95312L5.52937 10.0957C5.02104 11.6555 5.02104 13.3464 5.52937 14.9062C4.23437 15.9479 2.93875 16.9948 1.6425 18.0469C0.452156 15.5787 0.0891221 12.7666 0.611248 10.0586Z" fill="#F8BD00"/>
        <path d="M12.2381 10.1855H23.3981C23.7797 12.3671 23.6764 14.6106 23.0962 16.7441C22.5623 18.706 21.5251 20.4792 20.0962 21.873C18.8419 20.8535 17.5819 19.8418 16.3275 18.8223C16.9494 18.3853 17.4802 17.8221 17.8881 17.1663C18.296 16.5105 18.5726 15.7757 18.7012 15.0059H12.2381C12.2362 13.4004 12.2381 11.793 12.2381 10.1855Z" fill="#587DBD"/>
        <path d="M1.64062 18.0469C2.93687 17.0052 4.2325 15.9583 5.5275 14.9063C6.02851 16.4379 6.98138 17.7654 8.25 18.6992C9.04116 19.282 9.9403 19.6864 10.89 19.8867C11.8257 20.068 12.7855 20.068 13.7212 19.8867C14.6543 19.7224 15.544 19.3565 16.3331 18.8125C17.5875 19.832 18.8475 20.8438 20.1019 21.8633C18.7292 23.1635 17.0558 24.0701 15.2456 24.4941C13.2476 24.9834 11.1655 24.96 9.17812 24.4258C7.60632 23.9886 6.13814 23.218 4.86562 22.1621C3.51886 21.0481 2.41882 19.6444 1.64062 18.0469Z" fill="#319F43"/>
    </g>
    <defs>
        <clipPath id="clip0_30_27287">
            <rect width="24" height="25" fill="white"/>
        </clipPath>
    </defs>
</svg>
