<svg width="37" height="36" viewBox="0 0 37 36" fill="none" xmlns="http://www.w3.org/2000/svg">
<g clip-path="url(#clip0_83_1442)">
<path fill-rule="evenodd" clip-rule="evenodd" d="M16.658 4.03198C17.1846 3.62232 17.8328 3.3999 18.5 3.3999C19.1672 3.3999 19.8153 3.62232 20.342 4.03198L32.918 13.812C34.0475 14.6925 33.4235 16.5 31.9955 16.5H30.5V28.5C30.5 29.2956 30.1839 30.0587 29.6213 30.6213C29.0587 31.1839 28.2956 31.5 27.5 31.5H9.49997C8.70432 31.5 7.94126 31.1839 7.37865 30.6213C6.81604 30.0587 6.49997 29.2956 6.49997 28.5V16.5H5.00447C3.57497 16.5 2.95397 14.691 4.08197 13.8135L16.658 4.03198ZM8.93747 13.8375C9.28097 14.115 9.49997 14.5395 9.49997 15.015V28.5H27.5V15.015C27.5 14.5395 27.719 14.115 28.0625 13.8375L18.5 6.40048L8.93747 13.8375Z" fill="#3B8ACF"/>
</g>
<defs>
<clipPath id="clip0_83_1442">
<rect width="36" height="36" fill="white" transform="translate(0.5)"/>
</clipPath>
</defs>
</svg>
