<svg width="12" height="16" viewBox="0 0 12 16" fill="none" xmlns="http://www.w3.org/2000/svg">
<path d="M6 0.212158C2.89465 0.212158 0.375 2.48009 0.375 5.27466C0.375 9.77466 6 15.9622 6 15.9622C6 15.9622 11.625 9.77466 11.625 5.27466C11.625 2.48009 9.10535 0.212158 6 0.212158ZM6 8.08716C5.55499 8.08716 5.11998 7.9552 4.74997 7.70796C4.37996 7.46073 4.09157 7.10933 3.92127 6.6982C3.75097 6.28706 3.70642 5.83466 3.79323 5.3982C3.88005 4.96175 4.09434 4.56084 4.40901 4.24617C4.72368 3.9315 5.12459 3.71721 5.56105 3.63039C5.9975 3.54357 6.4499 3.58813 6.86104 3.75843C7.27217 3.92873 7.62357 4.21711 7.87081 4.58713C8.11804 4.95714 8.25 5.39215 8.25 5.83716C8.24935 6.4337 8.01209 7.00561 7.59027 7.42743C7.16846 7.84925 6.59654 8.08651 6 8.08716Z" fill="#3B8ACF"/>
</svg>
