<svg width="19" height="19" viewBox="0 0 19 19" fill="none" xmlns="http://www.w3.org/2000/svg">
<path d="M10.3864 1.1136C10.2176 0.944821 9.9887 0.85 9.75 0.85C7.38957 0.85 5.12582 1.78768 3.45675 3.45675C1.78768 5.12582 0.85 7.38957 0.85 9.75C0.85 12.1104 1.78768 14.3742 3.45675 16.0433C5.12582 17.7123 7.38957 18.65 9.75 18.65C9.9887 18.65 10.2176 18.5552 10.3864 18.3864C10.5552 18.2176 10.65 17.9887 10.65 17.75C10.65 17.5113 10.5552 17.2824 10.3864 17.1136C10.2176 16.9448 9.9887 16.85 9.75 16.85C7.86696 16.85 6.06105 16.102 4.72954 14.7705C3.39803 13.439 2.65 11.633 2.65 9.75C2.65 7.86696 3.39803 6.06105 4.72954 4.72954C6.06105 3.39803 7.86696 2.65 9.75 2.65C9.9887 2.65 10.2176 2.55518 10.3864 2.3864C10.5552 2.21761 10.65 1.98869 10.65 1.75C10.65 1.51131 10.5552 1.28239 10.3864 1.1136Z" fill="#CD1922" stroke="#CD1922" stroke-width="0.3"/>
<path d="M14.1103 7.38211L14.1102 7.38217L14.1139 7.38591L15.5779 8.84985H7.75C7.5113 8.84985 7.28239 8.94467 7.1136 9.11345C6.94482 9.28223 6.85 9.51115 6.85 9.74985C6.85 9.98854 6.94482 10.2175 7.1136 10.3862C7.28239 10.555 7.5113 10.6498 7.75 10.6498H15.5779L14.1157 12.112C14.0282 12.194 13.958 12.2927 13.9092 12.4023C13.86 12.5127 13.8336 12.6318 13.8314 12.7527C13.8293 12.8735 13.8515 12.9936 13.8968 13.1056C13.9421 13.2177 14.0094 13.3195 14.0949 13.405C14.1804 13.4904 14.2822 13.5578 14.3942 13.6031C14.5063 13.6483 14.6263 13.6705 14.7472 13.6684C14.868 13.6663 14.9872 13.6398 15.0976 13.5906C15.2071 13.5418 15.3058 13.4716 15.3879 13.3841L18.3861 10.3859L18.3861 10.3858C18.5547 10.2171 18.6493 9.98835 18.6493 9.74985C18.6493 9.51135 18.5547 9.2826 18.3861 9.11385L18.3861 9.11378L15.3861 6.11378L15.3861 6.11372L15.3823 6.11011C15.2116 5.95113 14.986 5.86458 14.7528 5.86869C14.5197 5.87281 14.2972 5.96726 14.1323 6.13216C13.9674 6.29706 13.873 6.51952 13.8688 6.75268C13.8647 6.98584 13.9513 7.21149 14.1103 7.38211Z" fill="#CD1922" stroke="#CD1922" stroke-width="0.3"/>
</svg>
