<svg width="23" height="22" viewBox="0 0 23 22" fill="none" xmlns="http://www.w3.org/2000/svg">
<path d="M15.8706 2.19121C14.8183 1.1618 13.4503 0.647095 12.1876 0.647095C10.9248 0.647095 9.45163 1.1618 8.50457 2.19121L2.40131 7.95592C0.296732 10.0147 0.296732 13.2059 2.40131 15.2647C4.50588 17.3236 7.76797 17.3236 9.87255 15.2647L15.8706 9.39709C17.8699 7.44121 17.8699 4.14709 15.8706 2.19121ZM14.3974 7.95592L11.451 10.8383L7.66274 7.23533L3.03268 11.7647C3.03268 10.9412 3.24314 10.0147 3.97974 9.39709L9.97778 3.52945C10.5039 3.01474 11.3458 2.70592 12.0824 2.70592C12.819 2.70592 13.6608 3.01474 14.2922 3.52945C15.5549 4.86768 15.5549 6.72062 14.3974 7.95592ZM19.4484 5.89709C19.4484 6.72062 19.2379 7.44121 19.0275 8.26474C20.0797 9.50004 20.0797 11.353 18.9222 12.4853L15.9758 15.3677L14.3974 13.8236L11.451 16.7059C10.083 18.0442 8.18889 18.7647 6.4 18.7647C6.61046 19.0736 6.82092 19.3824 7.1366 19.6912C9.24118 21.75 12.5033 21.75 14.6078 19.6912L20.6059 13.8236C22.7105 11.7647 22.7105 8.57357 20.6059 6.51474C20.0797 6.30886 19.7641 6.10298 19.4484 5.89709Z" fill="#DF1919"/>
</svg>
