<svg width="41" height="39" viewBox="0 0 41 39" fill="none" xmlns="http://www.w3.org/2000/svg">
<path d="M40.1995 36.5782C37.2844 31.5385 32.7921 27.9247 27.5495 26.2116C30.1427 24.6679 32.1575 22.3155 33.2844 19.5159C34.4114 16.7162 34.5881 13.624 33.7875 10.7142C32.987 7.80432 31.2534 5.23772 28.8529 3.40851C26.4525 1.5793 23.518 0.588623 20.5 0.588623C17.482 0.588623 14.5475 1.5793 12.1471 3.40851C9.74664 5.23772 8.01303 7.80432 7.21246 10.7142C6.4119 13.624 6.58865 16.7162 7.71557 19.5159C8.84249 22.3155 10.8573 24.6679 13.4505 26.2116C8.20789 27.9228 3.71559 31.5366 0.800468 36.5782C0.693566 36.7525 0.622658 36.9465 0.591929 37.1486C0.5612 37.3508 0.571271 37.5571 0.62155 37.7553C0.671828 37.9535 0.761295 38.1396 0.884671 38.3027C1.00805 38.4657 1.16283 38.6024 1.3399 38.7047C1.51696 38.807 1.71272 38.8727 1.91562 38.8981C2.11851 38.9235 2.32444 38.908 2.52125 38.8526C2.71806 38.7971 2.90177 38.7027 3.06153 38.5751C3.22129 38.4475 3.35387 38.2892 3.45144 38.1095C7.05754 31.8773 13.4314 28.1563 20.5 28.1563C27.5686 28.1563 33.9425 31.8773 37.5486 38.1095C37.6461 38.2892 37.7787 38.4475 37.9385 38.5751C38.0982 38.7027 38.2819 38.7971 38.4787 38.8526C38.6756 38.908 38.8815 38.9235 39.0844 38.8981C39.2873 38.8727 39.483 38.807 39.6601 38.7047C39.8372 38.6024 39.992 38.4657 40.1153 38.3027C40.2387 38.1396 40.3282 37.9535 40.3784 37.7553C40.4287 37.5571 40.4388 37.3508 40.4081 37.1486C40.3773 36.9465 40.3064 36.7525 40.1995 36.5782ZM9.78125 14.3751C9.78125 12.2551 10.4099 10.1828 11.5877 8.42006C12.7655 6.65737 14.4395 5.28352 16.3981 4.47225C18.3567 3.66097 20.5119 3.4487 22.5911 3.86229C24.6704 4.27587 26.5803 5.29673 28.0793 6.79578C29.5783 8.29482 30.5992 10.2047 31.0128 12.284C31.4264 14.3632 31.2141 16.5184 30.4028 18.477C29.5916 20.4356 28.2177 22.1096 26.455 23.2874C24.6923 24.4652 22.62 25.0938 20.5 25.0938C17.6581 25.0908 14.9336 23.9605 12.9241 21.951C10.9146 19.9415 9.78429 17.2169 9.78125 14.3751Z" fill="#8C8E94"/>
</svg>
