<svg width="29" height="29" viewBox="0 0 29 29" fill="none" xmlns="http://www.w3.org/2000/svg">
<path d="M14.6799 28.9364C18.5087 28.8887 22.1617 27.322 24.8353 24.5809C27.5089 21.8398 28.9841 18.1489 28.9364 14.3202C28.8887 10.4914 27.322 6.83841 24.5809 4.1648C21.8398 1.49119 18.1489 0.0159708 14.3201 0.0636813C10.4914 0.111392 6.83836 1.67812 4.16475 4.4192C1.49114 7.16029 0.0159272 10.8512 0.0636377 14.68C0.111348 18.5087 1.67808 22.1617 4.41916 24.8353C7.16024 27.5089 10.8511 28.9842 14.6799 28.9364ZM14.3458 2.12602C17.6276 2.08513 20.7913 3.3496 23.1408 5.64126C25.4903 7.93293 26.8332 11.0641 26.8741 14.3459C26.915 17.6277 25.6505 20.7913 23.3588 23.1408C21.0672 25.4903 17.936 26.8332 14.6542 26.8741C11.3724 26.915 8.20878 25.6505 5.85928 23.3589C3.50978 21.0672 2.16687 17.9361 2.12598 14.6543C2.08508 11.3725 3.34955 8.20882 5.64122 5.85932C7.93288 3.50983 11.064 2.16692 14.3458 2.12602ZM12.8985 10.1245L19.5466 14.4372L13.008 18.9142L12.8985 10.1245ZM13.3784 21.162L21.3506 15.7018C21.5607 15.5579 21.732 15.3644 21.8494 15.1384C21.9667 14.9124 22.0264 14.6609 22.0233 14.4063C22.0201 14.1517 21.9541 13.9018 21.8312 13.6788C21.7083 13.4558 21.5322 13.2666 21.3186 13.128L13.2128 7.86815C12.9779 7.71577 12.7061 7.63 12.4263 7.61997C12.1465 7.60994 11.8692 7.67603 11.6241 7.8112C11.3789 7.94637 11.175 8.14554 11.0341 8.38748C10.8932 8.62942 10.8207 8.90507 10.8241 9.18501L10.9577 19.9071C10.9612 20.1871 11.0407 20.4608 11.1875 20.6992C11.3344 20.9375 11.5432 21.1316 11.7917 21.2606C12.0401 21.3896 12.319 21.4488 12.5984 21.4318C12.8779 21.4148 13.1475 21.3222 13.3785 21.1641L13.3784 21.162Z" fill="white"/>
</svg>
