<svg width="28" height="26" viewBox="0 0 28 26" fill="none" xmlns="http://www.w3.org/2000/svg">
<path d="M9.00668 17.8274L11.0612 17.277L23.4313 5.65287C23.5289 5.56002 23.5832 5.43526 23.5826 5.30554C23.5819 5.17581 23.5263 5.05153 23.4278 4.95954L22.687 4.26404C22.6391 4.21836 22.5819 4.182 22.5188 4.15707C22.4556 4.13214 22.3877 4.11914 22.3191 4.11884C22.2504 4.11854 22.1824 4.13093 22.119 4.1553C22.0556 4.17968 21.998 4.21553 21.9497 4.26079L9.61218 15.8546L9.00668 17.8274ZM24.1535 2.88604L24.8943 3.58262C25.9163 4.54354 25.9257 6.09379 24.913 7.04495L12.166 19.0245L7.77468 20.1988C7.50657 20.2685 7.21965 20.2365 6.97687 20.11C6.73408 19.9835 6.55527 19.7727 6.47968 19.5239C6.42342 19.345 6.42261 19.155 6.47734 18.9757L7.75484 14.8157L20.468 2.86762C20.7098 2.64159 20.9975 2.46252 21.3146 2.34085C21.6316 2.21918 21.9716 2.15735 22.3147 2.15897C22.6577 2.16058 22.997 2.2256 23.3127 2.35025C23.6284 2.47489 23.9142 2.65775 24.1535 2.88604ZM10.7147 4.13512C11.2933 4.13512 11.7623 4.57604 11.7623 5.11987C11.7633 5.24843 11.7369 5.37589 11.6847 5.49498C11.6326 5.61406 11.5556 5.72243 11.4583 5.81389C11.361 5.90535 11.2453 5.9781 11.1177 6.02798C10.9901 6.07787 10.8531 6.10391 10.7147 6.10462H6.52401C5.36668 6.10462 4.42868 6.98645 4.42868 8.07304V19.8879C4.42868 20.9755 5.36668 21.8574 6.52401 21.8574H19.096C20.2533 21.8574 21.1925 20.9755 21.1925 19.8879V15.95C21.1925 15.4061 21.6615 14.9652 22.2402 14.9652C22.8188 14.9652 23.2878 15.4061 23.2878 15.951V19.8879C23.2878 22.0632 21.4107 23.8269 19.096 23.8269H6.52401C4.20934 23.8269 2.33334 22.0632 2.33334 19.8879V8.07304C2.33334 5.89879 4.20934 4.13512 6.52401 4.13512H10.7147Z" fill="#AEAEB3"/>
</svg>
