<svg width="28" height="28" viewBox="0 0 28 28" fill="none" xmlns="http://www.w3.org/2000/svg">
<path fill-rule="evenodd" clip-rule="evenodd" d="M14 15.1667C16.7953 15.1667 19.3375 15.9764 21.2077 17.1174C22.141 17.6867 22.939 18.3587 23.5153 19.089C24.0823 19.8065 24.5 20.6652 24.5 21.5834C24.5 22.5692 24.0205 23.3462 23.3298 23.9004C22.6765 24.4254 21.8143 24.773 20.8985 25.0157C19.0575 25.5022 16.6005 25.6667 14 25.6667C11.3995 25.6667 8.9425 25.5034 7.1015 25.0157C6.18567 24.773 5.3235 24.4254 4.67017 23.9004C3.97833 23.345 3.5 22.5692 3.5 21.5834C3.5 20.6652 3.91767 19.8065 4.48467 19.0879C5.061 18.3587 5.85783 17.6879 6.79233 17.1162C8.6625 15.9775 11.2058 15.1667 14 15.1667ZM14 17.5C11.6398 17.5 9.5165 18.1884 8.008 19.1089C7.25317 19.5685 6.68383 20.0679 6.31633 20.5345C5.93833 21.0129 5.83333 21.3745 5.83333 21.5834C5.83333 21.7257 5.8765 21.8762 6.13083 22.0804C6.42133 22.3137 6.9265 22.5552 7.69883 22.7594C9.2365 23.1677 11.4462 23.3334 14 23.3334C16.555 23.3334 18.7635 23.1665 20.3 22.7594C21.0735 22.5552 21.5787 22.3137 21.8692 22.0804C22.1235 21.8762 22.1667 21.7257 22.1667 21.5834C22.1667 21.3734 22.0617 21.0129 21.6848 20.5345C21.3162 20.0679 20.7468 19.5685 19.992 19.1089C18.4835 18.1872 16.3602 17.5 14 17.5ZM14 2.33337C15.5471 2.33337 17.0308 2.94796 18.1248 4.04192C19.2188 5.13588 19.8333 6.61961 19.8333 8.16671C19.8333 9.7138 19.2188 11.1975 18.1248 12.2915C17.0308 13.3855 15.5471 14 14 14C12.4529 14 10.9692 13.3855 9.87521 12.2915C8.78125 11.1975 8.16667 9.7138 8.16667 8.16671C8.16667 6.61961 8.78125 5.13588 9.87521 4.04192C10.9692 2.94796 12.4529 2.33337 14 2.33337ZM14 4.66671C13.5404 4.66671 13.0852 4.75724 12.6606 4.93313C12.236 5.10902 11.8501 5.36683 11.5251 5.69183C11.2001 6.01684 10.9423 6.40268 10.7664 6.82732C10.5905 7.25196 10.5 7.70708 10.5 8.16671C10.5 8.62633 10.5905 9.08146 10.7664 9.5061C10.9423 9.93074 11.2001 10.3166 11.5251 10.6416C11.8501 10.9666 12.236 11.2244 12.6606 11.4003C13.0852 11.5762 13.5404 11.6667 14 11.6667C14.9283 11.6667 15.8185 11.298 16.4749 10.6416C17.1313 9.9852 17.5 9.09497 17.5 8.16671C17.5 7.23845 17.1313 6.34821 16.4749 5.69183C15.8185 5.03546 14.9283 4.66671 14 4.66671Z" fill="#CBCBCE"/>
</svg>
