<svg width="24" height="24" viewBox="0 0 24 24" fill="none" xmlns="http://www.w3.org/2000/svg">
<path d="M16.9129 10.957L9.35987 7.17937C9.14635 7.07253 8.90905 7.02207 8.67053 7.03278C8.43201 7.0435 8.20019 7.11504 7.99711 7.24061C7.79404 7.36617 7.62645 7.54159 7.51027 7.75018C7.3941 7.95877 7.3332 8.19361 7.33337 8.43238V15.5677C7.3332 15.8065 7.3941 16.0413 7.51027 16.2499C7.62645 16.4585 7.79404 16.6339 7.99711 16.7595C8.20019 16.885 8.43201 16.9566 8.67053 16.9673C8.90905 16.978 9.14635 16.9276 9.35987 16.8207L16.9129 13.043C17.1064 12.946 17.2691 12.7971 17.3828 12.6129C17.4966 12.4287 17.5568 12.2165 17.5568 12C17.5568 11.7836 17.4966 11.5714 17.3828 11.3872C17.2691 11.203 17.1064 11.054 16.9129 10.957Z" stroke="#EA892F" stroke-width="2.33333" stroke-linecap="round" stroke-linejoin="round"/>
<path d="M12 22.5C17.799 22.5 22.5 17.799 22.5 12C22.5 6.20101 17.799 1.5 12 1.5C6.20101 1.5 1.5 6.20101 1.5 12C1.5 17.799 6.20101 22.5 12 22.5Z" stroke="#EA892F" stroke-width="2.33333"/>
</svg>
