<svg width="156" height="66" viewBox="0 0 156 66" fill="none" xmlns="http://www.w3.org/2000/svg">
<path d="M38.7402 24.0626C45.9891 37.2156 45.2496 51.8797 37.0887 56.8158C28.9279 61.7518 16.4359 55.0906 9.18715 41.9376C1.93841 28.7845 2.67785 14.1204 10.8387 9.18448C18.9996 4.24844 31.4916 10.9096 38.7402 24.0626Z" stroke="#3B8ACF" stroke-width="4" stroke-linecap="round" stroke-linejoin="round"/>
<path d="M23.9637 24.0626C16.715 37.2156 17.4544 51.8797 25.6152 56.8158C33.7761 61.7518 46.2681 55.0906 53.5169 41.9376C60.7655 28.7845 60.0261 14.1204 51.8652 9.18448C43.7044 4.24844 31.2124 10.9096 23.9637 24.0626Z" stroke="#3B8ACF" stroke-width="4" stroke-linecap="round" stroke-linejoin="round"/>
<path d="M31.1757 14.2233C33.991 16.8464 36.5952 20.1701 38.7404 24.0625C45.9892 37.2155 45.2497 51.8796 37.0889 56.8157C35.385 57.8462 33.4924 58.3712 31.4981 58.4372" stroke="#3B8ACF" stroke-width="4" stroke-linecap="round" stroke-linejoin="round"/>
<path d="M78.096 40.264C77.352 40.264 76.648 40.176 75.984 40C75.328 39.824 74.752 39.596 74.256 39.316C73.76 39.036 73.368 38.744 73.08 38.44L74.304 35.92C74.488 36.16 74.768 36.416 75.144 36.688C75.52 36.96 75.948 37.192 76.428 37.384C76.916 37.576 77.4 37.672 77.88 37.672C78.512 37.672 79.04 37.5 79.464 37.156C79.896 36.804 80.112 36.312 80.112 35.68C80.112 35.272 80.012 34.92 79.812 34.624C79.62 34.32 79.36 34.052 79.032 33.82C78.712 33.58 78.216 33.256 77.544 32.848C76.624 32.288 75.904 31.812 75.384 31.42C74.864 31.02 74.412 30.5 74.028 29.86C73.652 29.212 73.464 28.432 73.464 27.52C73.464 26.632 73.652 25.848 74.028 25.168C74.412 24.48 74.976 23.944 75.72 23.56C76.464 23.176 77.36 22.984 78.408 22.984C80.112 22.984 81.536 23.504 82.68 24.544L81.336 26.992C81.2 26.8 80.996 26.592 80.724 26.368C80.452 26.136 80.124 25.94 79.74 25.78C79.356 25.612 78.952 25.528 78.528 25.528C77.912 25.528 77.432 25.708 77.088 26.068C76.752 26.42 76.584 26.864 76.584 27.4C76.584 27.808 76.684 28.172 76.884 28.492C77.092 28.804 77.36 29.084 77.688 29.332C78.024 29.58 78.472 29.872 79.032 30.208C80.048 30.808 80.824 31.312 81.36 31.72C81.896 32.128 82.344 32.648 82.704 33.28C83.072 33.904 83.256 34.672 83.256 35.584C83.256 36.552 83.048 37.388 82.632 38.092C82.216 38.796 81.62 39.336 80.844 39.712C80.068 40.08 79.152 40.264 78.096 40.264ZM90.3844 40.312C89.0964 40.312 88.0324 40.04 87.1924 39.496C86.3524 38.944 85.7364 38.208 85.3444 37.288C84.9604 36.368 84.7684 35.328 84.7684 34.168C84.7684 32.984 84.9844 31.908 85.4164 30.94C85.8564 29.964 86.4964 29.192 87.3364 28.624C88.1764 28.048 89.1764 27.76 90.3364 27.76C92.0644 27.76 93.3004 28.26 94.0444 29.26C94.7884 30.252 95.1604 31.736 95.1604 33.712C95.1604 34.096 95.1444 34.528 95.1124 35.008H87.9124C87.9604 35.976 88.2284 36.724 88.7164 37.252C89.2124 37.772 89.9364 38.032 90.8884 38.032C91.3844 38.032 91.9164 37.924 92.4844 37.708C93.0524 37.484 93.4724 37.216 93.7444 36.904L94.7044 39.184C93.5764 39.936 92.1364 40.312 90.3844 40.312ZM92.1124 33.136C92.1124 31.96 91.9644 31.152 91.6684 30.712C91.3804 30.264 90.9604 30.04 90.4084 30.04C89.6324 30.04 89.0284 30.328 88.5964 30.904C88.1724 31.48 87.9364 32.224 87.8884 33.136H92.1124ZM97.5284 28.048H100.24L100.384 30.16C100.64 29.544 101.044 29.016 101.596 28.576C102.148 28.128 102.928 27.904 103.936 27.904C104.336 27.904 104.704 27.968 105.04 28.096L104.368 31.24C104.232 31.104 104.068 31.008 103.876 30.952C103.692 30.888 103.464 30.856 103.192 30.856C102.632 30.856 102.148 30.976 101.74 31.216C101.34 31.448 101.036 31.72 100.828 32.032C100.628 32.344 100.528 32.6 100.528 32.8V40H97.5284V28.048ZM111.093 40.312C109.805 40.312 108.741 40.04 107.901 39.496C107.061 38.944 106.445 38.208 106.053 37.288C105.669 36.368 105.477 35.328 105.477 34.168C105.477 32.984 105.693 31.908 106.125 30.94C106.565 29.964 107.205 29.192 108.045 28.624C108.885 28.048 109.885 27.76 111.045 27.76C112.773 27.76 114.009 28.26 114.753 29.26C115.497 30.252 115.869 31.736 115.869 33.712C115.869 34.096 115.853 34.528 115.821 35.008H108.621C108.669 35.976 108.937 36.724 109.425 37.252C109.921 37.772 110.645 38.032 111.597 38.032C112.093 38.032 112.625 37.924 113.193 37.708C113.761 37.484 114.181 37.216 114.453 36.904L115.413 39.184C114.285 39.936 112.845 40.312 111.093 40.312ZM112.821 33.136C112.821 31.96 112.673 31.152 112.377 30.712C112.089 30.264 111.669 30.04 111.117 30.04C110.341 30.04 109.737 30.328 109.305 30.904C108.881 31.48 108.645 32.224 108.597 33.136H112.821ZM124.717 27.76C125.909 27.76 126.805 28.14 127.405 28.9C128.013 29.652 128.317 30.72 128.317 32.104V40H125.245V32.368C125.245 31.688 125.101 31.148 124.813 30.748C124.525 30.34 124.101 30.136 123.541 30.136C123.165 30.136 122.813 30.232 122.485 30.424C122.165 30.616 121.909 30.884 121.717 31.228C121.525 31.564 121.429 31.944 121.429 32.368V40H118.357V28.048H121.141L121.201 29.62C122.025 28.38 123.197 27.76 124.717 27.76ZM131.334 22.912H134.694V26.104H131.334V22.912ZM131.454 28.048H134.574V40H131.454V28.048ZM137.991 30.568H136.383V28.048H137.991V25.84C137.991 24.696 138.203 23.792 138.627 23.128C139.051 22.464 139.567 22.008 140.175 21.76C140.783 21.504 141.407 21.376 142.047 21.376C142.727 21.376 143.279 21.436 143.703 21.556C144.135 21.676 144.407 21.792 144.519 21.904V24.52C144.351 24.312 144.091 24.148 143.739 24.028C143.395 23.908 143.079 23.848 142.791 23.848C141.527 23.848 140.895 24.488 140.895 25.768V28.048H143.799V30.568H140.895V40H137.991V30.568ZM148.425 39.184L143.937 28.048H147.273L149.049 33.376L149.817 36.136L150.585 33.376L152.385 28.048H155.529L149.433 44.536H146.481L148.425 39.184Z" fill="#3B8ACF"/>
</svg>
