<svg width="24" height="21" viewBox="0 0 24 21" fill="none" xmlns="http://www.w3.org/2000/svg">
<path d="M3.2 9.5L2.6665 9.621C2.19055 9.72915 1.76803 9.97882 1.46608 10.3303C1.16412 10.6818 1.00007 11.115 1 11.561V13.438C1.00007 13.884 1.16412 14.3172 1.46608 14.6687C1.76803 15.0202 2.19055 15.2698 2.6665 15.378L4.5805 15.813C4.67776 15.835 4.77926 15.8366 4.87729 15.8177C4.97533 15.7987 5.06733 15.7597 5.14631 15.7036C5.2253 15.6475 5.28919 15.5758 5.33315 15.4939C5.3771 15.412 5.39996 15.3221 5.4 15.231V9.768C5.40001 9.67677 5.37713 9.58675 5.33311 9.50477C5.28909 9.42279 5.22509 9.35101 5.14597 9.2949C5.06685 9.23879 4.9747 9.19981 4.87653 9.18094C4.77835 9.16207 4.67673 9.1638 4.5794 9.186L3.2 9.5ZM3.2 9.5V9C3.2 6.87827 4.12714 4.84344 5.77746 3.34315C7.42778 1.84285 9.66609 1 12 1C14.3339 1 16.5722 1.84285 18.2225 3.34315C19.8729 4.84344 20.8 6.87827 20.8 9V9.5M20.8 9.5L21.3335 9.621C21.8094 9.72915 22.232 9.97882 22.5339 10.3303C22.8359 10.6818 22.9999 11.115 23 11.561V13.438C22.9999 13.884 22.8359 14.3172 22.5339 14.6687C22.232 15.0202 21.8094 15.2698 21.3335 15.378L20.8 15.5M20.8 9.5L19.4195 9.186C19.3222 9.16398 19.2207 9.16239 19.1227 9.18134C19.0247 9.20029 18.9327 9.2393 18.8537 9.29539C18.7747 9.35148 18.7108 9.4232 18.6669 9.50508C18.6229 9.58697 18.6 9.67688 18.6 9.768V15.231C18.6 15.3221 18.6229 15.412 18.6669 15.4939C18.7108 15.5758 18.7747 15.6475 18.8537 15.7036C18.9327 15.7597 19.0247 15.7987 19.1227 15.8177C19.2207 15.8366 19.3222 15.835 19.4195 15.813L20.8 15.5M20.8 15.5V16.5C20.8 17.0304 20.5682 17.5391 20.1556 17.9142C19.7431 18.2893 19.1835 18.5 18.6 18.5H15.3M15.3 18.5C15.3 18.1022 15.1262 17.7206 14.8167 17.4393C14.5073 17.158 14.0876 17 13.65 17H10.35C9.91239 17 9.49271 17.158 9.18327 17.4393C8.87384 17.7206 8.7 18.1022 8.7 18.5C8.7 18.8978 8.87384 19.2794 9.18327 19.5607C9.49271 19.842 9.91239 20 10.35 20H13.65C14.0876 20 14.5073 19.842 14.8167 19.5607C15.1262 19.2794 15.3 18.8978 15.3 18.5Z" stroke="black" stroke-width="2"/>
</svg>
