<svg width="17" height="16" viewBox="0 0 17 16" fill="none" xmlns="http://www.w3.org/2000/svg">
<path d="M9.84077 12.0174L6.48188 10.1856C6.04336 10.6544 5.47396 10.9805 4.84769 11.1214C4.22142 11.2624 3.56723 11.2117 2.97015 10.976C2.37306 10.7402 1.86068 10.3304 1.4996 9.7996C1.13852 9.26885 0.945435 8.64175 0.945435 7.99982C0.945435 7.35788 1.13852 6.73079 1.4996 6.20003C1.86068 5.66927 2.37306 5.25939 2.97015 5.02366C3.56723 4.78793 4.22142 4.73725 4.84769 4.8782C5.47396 5.01915 6.04336 5.34521 6.48188 5.81402L9.84157 3.98219C9.65111 3.22703 9.74261 2.42834 10.0989 1.73582C10.4552 1.0433 11.0519 0.504506 11.777 0.220439C12.5022 -0.0636287 13.306 -0.0734674 14.0379 0.192767C14.7698 0.459001 15.3795 0.983029 15.7526 1.66662C16.1258 2.35021 16.2368 3.14643 16.0649 3.90602C15.893 4.66562 15.4499 5.33643 14.8188 5.79272C14.1876 6.24901 13.4117 6.45945 12.6365 6.38458C11.8613 6.30972 11.1401 5.95469 10.6079 5.38606L7.24821 7.21789C7.37716 7.73093 7.37716 8.2679 7.24821 8.78094L10.6079 10.6128C11.1403 10.0444 11.8618 9.68976 12.637 9.61527C13.4122 9.54078 14.188 9.75159 14.8189 10.2082C15.4498 10.6647 15.8925 11.3357 16.0641 12.0954C16.2357 12.8551 16.1243 13.6512 15.7509 14.3346C15.3774 15.018 14.7675 15.5418 14.0356 15.8077C13.3036 16.0736 12.4997 16.0634 11.7747 15.7791C11.0497 15.4947 10.4533 14.9557 10.0972 14.2631C9.74122 13.5704 9.65003 12.7725 9.84077 12.0174ZM4.1453 9.59927C4.56961 9.59927 4.97653 9.43071 5.27656 9.13068C5.57659 8.83065 5.74515 8.42372 5.74515 7.99942C5.74515 7.57511 5.57659 7.16818 5.27656 6.86815C4.97653 6.56812 4.56961 6.39957 4.1453 6.39957C3.72099 6.39957 3.31406 6.56812 3.01403 6.86815C2.714 7.16818 2.54545 7.57511 2.54545 7.99942C2.54545 8.42372 2.714 8.83065 3.01403 9.13068C3.31406 9.43071 3.72099 9.59927 4.1453 9.59927ZM12.9445 4.79972C13.3688 4.79972 13.7757 4.63116 14.0757 4.33113C14.3758 4.0311 14.5443 3.62417 14.5443 3.19987C14.5443 2.77556 14.3758 2.36863 14.0757 2.0686C13.7757 1.76857 13.3688 1.60002 12.9445 1.60002C12.5202 1.60002 12.1132 1.76857 11.8132 2.0686C11.5132 2.36863 11.3446 2.77556 11.3446 3.19987C11.3446 3.62417 11.5132 4.0311 11.8132 4.33113C12.1132 4.63116 12.5202 4.79972 12.9445 4.79972ZM12.9445 14.3988C13.3688 14.3988 13.7757 14.2303 14.0757 13.9302C14.3758 13.6302 14.5443 13.2233 14.5443 12.799C14.5443 12.3747 14.3758 11.9677 14.0757 11.6677C13.7757 11.3677 13.3688 11.1991 12.9445 11.1991C12.5202 11.1991 12.1132 11.3677 11.8132 11.6677C11.5132 11.9677 11.3446 12.3747 11.3446 12.799C11.3446 13.2233 11.5132 13.6302 11.8132 13.9302C12.1132 14.2303 12.5202 14.3988 12.9445 14.3988Z" fill="black"/>
</svg>
