<svg width="16" height="16" viewBox="0 0 16 16" fill="none" xmlns="http://www.w3.org/2000/svg">
<path fill-rule="evenodd" clip-rule="evenodd" d="M7.96204 0.833313H8.03804C9.57737 0.833313 10.7834 0.833313 11.7247 0.95998C12.6874 1.08931 13.4474 1.35998 14.044 1.95598C14.6407 2.55265 14.9107 3.31265 15.04 4.27598C15.1667 5.21665 15.1667 6.42265 15.1667 7.96198V8.02065C15.1667 9.29331 15.1667 10.3346 15.0974 11.1826C15.028 12.036 14.886 12.7473 14.5674 13.3393C14.4274 13.6 14.254 13.834 14.044 14.044C13.4474 14.6406 12.6874 14.9106 11.724 15.04C10.7834 15.1666 9.57737 15.1666 8.03804 15.1666H7.96204C6.42271 15.1666 5.21671 15.1666 4.27537 15.04C3.31271 14.9106 2.55271 14.64 1.95604 14.044C1.42737 13.5153 1.15404 12.8573 1.00937 12.04C0.866041 11.238 0.840041 10.24 0.834707 9.00131C0.833374 8.68598 0.833374 8.35265 0.833374 8.00065V7.96198C0.833374 6.42265 0.833374 5.21665 0.960041 4.27531C1.08937 3.31265 1.36004 2.55265 1.95604 1.95598C2.55271 1.35931 3.31271 1.08931 4.27604 0.95998C5.21671 0.833313 6.42271 0.833313 7.96204 0.833313ZM4.40871 1.95065C3.55671 2.06531 3.04271 2.28398 2.66337 2.66331C2.28337 3.04331 2.06537 3.55665 1.95071 4.40931C1.83471 5.27598 1.83337 6.41465 1.83337 7.99998V8.56265L2.50071 7.97865C2.79342 7.72241 3.17259 7.58702 3.5614 7.59989C3.9502 7.61277 4.31958 7.77294 4.59471 8.04798L7.45471 10.908C7.67664 11.1299 7.96974 11.2664 8.28241 11.2934C8.59507 11.3205 8.90727 11.2364 9.16404 11.056L9.36271 10.916C9.73316 10.6557 10.181 10.5288 10.6329 10.556C11.0849 10.5833 11.5142 10.763 11.8507 11.066L13.7374 12.764C13.928 12.3653 14.0407 11.8413 14.1007 11.102C14.166 10.2986 14.1667 9.29731 14.1667 7.99998C14.1667 6.41465 14.1654 5.27598 14.0494 4.40931C13.9347 3.55665 13.716 3.04265 13.3367 2.66265C12.9567 2.28331 12.4434 2.06531 11.5907 1.95065C10.724 1.83465 9.58537 1.83331 8.00004 1.83331C6.41471 1.83331 5.27537 1.83465 4.40871 1.95065Z" fill="white"/>
</svg>
